<svg xmlns="http://www.w3.org/2000/svg" width="320" height="96" viewBox="0 0 320 96">
  <defs>
    <linearGradient id="body" x1="0" y1="0" x2="0" y2="1">
      <stop offset="0" stop-color="#27303c"/>
      <stop offset=".16" stop-color="#18202b"/>
      <stop offset=".62" stop-color="#0a0f17"/>
      <stop offset="1" stop-color="#05080d"/>
    </linearGradient>
    <linearGradient id="gold" x1="0" y1="0" x2="1" y2="1">
      <stop offset="0" stop-color="#fff0bd"/>
      <stop offset=".18" stop-color="#d9aa63"/>
      <stop offset=".5" stop-color="#76502c"/>
      <stop offset=".76" stop-color="#c8944e"/>
      <stop offset="1" stop-color="#f0cc83"/>
    </linearGradient>
    <linearGradient id="edgeLight" x1="0" y1="0" x2="1" y2="0">
      <stop offset="0" stop-color="#ffffff" stop-opacity="0"/>
      <stop offset=".18" stop-color="#fff4cf" stop-opacity=".5"/>
      <stop offset=".72" stop-color="#fff4cf" stop-opacity=".14"/>
      <stop offset="1" stop-color="#ffffff" stop-opacity="0"/>
    </linearGradient>
    <filter id="plateShadow" x="-16%" y="-28%" width="132%" height="170%" color-interpolation-filters="sRGB">
      <feDropShadow dx="0" dy="5" stdDeviation="4" flood-color="#000000" flood-opacity=".82"/>
      <feDropShadow dx="0" dy="0" stdDeviation="2" flood-color="#d7a75e" flood-opacity=".3"/>
    </filter>
  </defs>
  <path d="M25 6H295L314 25V71L295 90H25L6 71V25Z" fill="url(#body)" stroke="url(#gold)" stroke-width="4" filter="url(#plateShadow)"/>
  <path d="M29 12H291L308 29V67L291 84H29L12 67V29Z" fill="none" stroke="#f4d99e" stroke-opacity=".34" stroke-width="1.5"/>
  <path d="M39 17H281" stroke="url(#edgeLight)" stroke-width="2.5" stroke-linecap="round"/>
  <path d="M27 7L18 18M293 7L302 18M27 89L18 78M293 89L302 78" fill="none" stroke="#f2d292" stroke-opacity=".78" stroke-width="2" stroke-linecap="round"/>
  <path d="M15 35V61M305 35V61" stroke="#d4a257" stroke-opacity=".82" stroke-width="2.4"/>
  <path d="M31 79H289" stroke="#000000" stroke-opacity=".72" stroke-width="2"/>
</svg>
